<?xml version="1.0" encoding="UTF-8" standalone="no"?>
<svg width="50px" height="50px" viewBox="0 0 50 50" version="1.1" xmlns="http://www.w3.org/2000/svg" xmlns:xlink="http://www.w3.org/1999/xlink" xmlns:sketch="http://www.bohemiancoding.com/sketch/ns">
    <!-- Generator: Sketch 3.1 (8751) - http://www.bohemiancoding.com/sketch -->
    <title>Untitled 2</title>
    <desc>Created with Sketch.</desc>
    <defs></defs>
    <g id="Page-1" stroke="none" stroke-width="1" fill="none" fill-rule="evenodd" sketch:type="MSPage">
        <g id="Github" sketch:type="MSLayerGroup">
            <path d="M24.9064248,0 C38.5068233,0 49.5321236,11.1928806 49.5321236,25 C49.5321236,38.8071194 38.5068233,50 24.9064248,50 C11.3060261,50 0.28072586,38.8071194 0.28072586,25 C0.28072586,11.1928806 11.3060261,0 24.9064248,0 Z" id="Shape" fill="#1F1F1F" sketch:type="MSShapeGroup"></path>
            <path d="M15.1820204,26.6129638 C16.3390421,28.7089918 18.5704412,30.0130637 22.3339406,30.3737644 C21.7967519,30.7804446 21.1514898,31.552582 21.0624881,32.4452172 C20.387029,32.8812291 19.0289588,33.0247167 17.9728586,32.6925549 C16.4932057,32.2264186 15.9266148,29.3035535 13.7111089,29.7197466 C13.2311355,29.81012 13.3264944,30.1256341 13.7413058,30.3935832 C14.4167649,30.8295951 15.0524911,31.3750062 15.5427951,32.5363833 C15.9194629,33.4282258 16.710942,35.0216511 19.2141141,35.0216511 C20.2074363,35.0216511 20.9035566,34.9027387 20.9035566,34.9027387 C20.9035566,34.9027387 20.9226284,37.1787207 20.9226284,38.0634285 C20.9226284,39.0836962 19.5423078,39.3714641 19.5423078,39.8621757 C19.5423078,40.0563992 19.999236,40.0746323 20.3663679,40.0746323 C21.0918905,40.0746323 22.6017402,39.4705577 22.6017402,38.4098597 C22.6017402,37.5671677 22.6152494,34.7338832 22.6152494,34.2384152 C22.6152494,33.1547275 23.1977336,32.8114672 23.1977336,32.8114672 C23.1977336,32.8114672 23.2700475,38.5961557 23.0586685,39.3714641 C22.8107352,40.2831253 22.363343,40.1539072 22.363343,40.5605874 C22.363343,41.1654548 24.1807253,40.7088315 24.7830759,39.3809771 C25.2487454,38.3472326 25.045313,32.6727362 25.045313,32.6727362 L25.5419741,32.6624304 C25.5419741,32.6624304 25.5697871,35.2602685 25.5530993,36.4478062 C25.5356169,37.6773597 25.4521778,39.2327331 26.1840576,39.9660257 C26.6648256,40.4480171 28.2239442,41.2938802 28.2239442,40.52095 C28.2239442,40.0714613 27.369687,39.7020404 27.369687,38.4859637 L27.369687,32.8907421 C28.0515034,32.8907421 27.9489926,34.7307122 27.9489926,34.7307122 L27.9990561,38.1490453 C27.9990561,38.1490453 27.8488657,39.3944538 29.3491797,39.9160826 C29.8784217,40.1007931 31.0116038,40.1507362 31.0648458,39.8407714 C31.1180879,39.5300139 29.7004184,39.0678413 29.6877039,38.1030659 C29.6797573,37.5148462 29.7139275,37.171586 29.7139275,34.6149709 C29.7139275,32.0583558 29.3698407,31.1133992 28.1707021,30.3602877 C31.8714235,29.980561 34.1616273,29.067235 35.2781215,26.6208912 C35.3653016,26.6237472 35.7326242,25.4781452 35.6849863,25.4785402 C35.9353035,24.5549877 36.0703953,23.4625797 36.0974137,22.1688137 C36.0910564,18.6608999 34.4079712,17.4202479 34.0845455,16.8375775 C34.5613402,14.1818687 34.0050797,12.9729267 33.7468159,12.5583191 C32.7932266,12.2198153 30.4291196,13.4287573 29.1378007,14.2809623 C27.0319575,13.666582 22.5818739,13.7260382 20.9130925,14.4395122 C17.8337934,12.239634 16.204745,12.5765523 16.204745,12.5765523 C16.204745,12.5765523 15.1518234,14.4593308 15.9266148,17.2141332 C14.9134261,18.5023501 14.1585011,19.4140113 14.1585011,21.8303098 C14.1585011,23.1914597 14.319022,24.4099147 14.681386,25.4737837 C14.6369648,25.4736744 15.1673744,26.6133147 15.1820204,26.6129638 L15.1820204,26.6129638 Z" id="Path" fill="#D4D4D4" sketch:type="MSShapeGroup"></path>
            <path d="M49.5321236,25 C49.5321236,38.8071194 38.5068233,50 24.9064248,50 C19.862359,50 15.1724961,48.4604278 11.2680123,45.8189795 L39.4848634,4.84950919 C45.5781117,9.40054192 49.5321236,16.7314978 49.5321236,25 L49.5321236,25 Z" id="reflec" fill-opacity="0.08" fill="#000000" sketch:type="MSShapeGroup"></path>
        </g>
    </g>
</svg>