<?xml version="1.0" encoding="UTF-8" standalone="no"?>
<svg width="50px" height="50px" viewBox="0 0 50 50" version="1.1" xmlns="http://www.w3.org/2000/svg" xmlns:xlink="http://www.w3.org/1999/xlink" xmlns:sketch="http://www.bohemiancoding.com/sketch/ns">
    <!-- Generator: Sketch 3.1 (8751) - http://www.bohemiancoding.com/sketch -->
    <title>Untitled 2</title>
    <desc>Created with Sketch.</desc>
    <defs></defs>
    <g id="Page-1" stroke="none" stroke-width="1" fill="none" fill-rule="evenodd" sketch:type="MSPage">
        <g id="LinkedIN" sketch:type="MSLayerGroup">
            <path d="M25,0 C38.6003986,0 49.6256989,11.1928806 49.6256989,25 C49.6256989,38.8071194 38.6003986,50 25,50 C11.3996014,50 0.374301147,38.8071194 0.374301147,25 C0.374301147,11.1928806 11.3996014,0 25,0 Z" id="Shape" fill="#1F1F1F" sketch:type="MSShapeGroup"></path>
            <path d="M18.723366,19.7581787 L13.1506971,19.7581787 L13.1506971,36.7807948 L18.723366,36.7807948 L18.723366,19.7581787 L18.723366,19.7581787 Z" id="Path" fill="#D4D4D4" sketch:type="MSShapeGroup"></path>
            <path d="M19.0903961,14.4923968 C19.0542272,12.8233401 17.880243,11.5520867 15.9738681,11.5520867 C14.0674932,11.5520867 12.8211714,12.8233401 12.8211714,14.4923968 C12.8211714,16.1268816 14.0306566,17.4347405 15.9015305,17.4347405 L15.9371429,17.4347405 C17.880243,17.4347405 19.0903961,16.1268816 19.0903961,14.4923968 L19.0903961,14.4923968 Z" id="Path" fill="#D4D4D4" sketch:type="MSShapeGroup"></path>
            <path d="M38.8205419,27.0205469 C38.8205419,21.7919355 36.0713779,19.3584547 32.4043048,19.3584547 C29.4455843,19.3584547 28.1209152,21.0106773 27.3812907,22.1697413 L27.3812907,19.7586306 L21.8079541,19.7586306 C21.8814046,21.3559448 21.8079541,36.7812467 21.8079541,36.7812467 L27.3812907,36.7812467 L27.3812907,27.2744134 C27.3812907,26.7656636 27.4174595,26.2581564 27.5648057,25.8939082 C27.9675594,24.8775382 28.8845781,23.8252404 30.4241456,23.8252404 C32.4414752,23.8252404 33.247873,25.3861751 33.247873,27.6736855 L33.247873,36.7807948 L38.8203193,36.7807948 L38.8205419,27.0205469 L38.8205419,27.0205469 Z" id="Path" fill="#D4D4D4" sketch:type="MSShapeGroup"></path>
            <path d="M49.6256989,25 C49.6256989,38.8071194 38.6003986,50 25,50 C19.9559343,50 15.2660715,48.4604278 11.3615876,45.8189795 L39.5784387,4.84950919 C45.671687,9.40054192 49.6256989,16.7314978 49.6256989,25 L49.6256989,25 Z" id="reflec" fill-opacity="0.08" fill="#000000" sketch:type="MSShapeGroup"></path>
        </g>
    </g>
</svg>