<?xml version="1.0" encoding="UTF-8" standalone="no"?>
<svg width="50px" height="50px" viewBox="0 0 50 50" version="1.1" xmlns="http://www.w3.org/2000/svg" xmlns:xlink="http://www.w3.org/1999/xlink" xmlns:sketch="http://www.bohemiancoding.com/sketch/ns">
    <!-- Generator: Sketch 3.1 (8751) - http://www.bohemiancoding.com/sketch -->
    <title>Untitled 2</title>
    <desc>Created with Sketch.</desc>
    <defs></defs>
    <g id="Page-1" stroke="none" stroke-width="1" fill="none" fill-rule="evenodd" sketch:type="MSPage">
        <g id="Mail" sketch:type="MSLayerGroup">
            <path d="M0.187150573,25 C0.187150573,11.1928806 11.2124508,0 24.8128494,0 C38.413248,0 49.4385483,11.1928806 49.4385483,25 C49.4385483,38.8071194 38.413248,50 24.8128494,50 C11.2124508,50 0.187150573,38.8071194 0.187150573,25 L0.187150573,25 Z" id="Shape" fill="#1F1F1F" sketch:type="MSShapeGroup"></path>
            <path d="M29.1986936,26.3653338 L39.3442623,16.6666667 L39.3442623,33.8136887 L29.1986936,26.3653338 Z M11.4754098,16.6666667 L21.6207607,26.3642909 L11.4754098,33.8136887 L11.4754098,16.6666667 Z M25.4098361,29.9870742 L27.8318135,27.6721014 L39.3442623,35 L11.4754098,35 L22.9875865,27.6721014 L25.4098361,29.9870742 Z M38.5081967,16.6666667 L25.4098361,27.0457753 L12.3114754,16.6666667 L38.5081967,16.6666667 Z" id="Shape" fill="#D4D4D4" sketch:type="MSShapeGroup"></path>
            <path d="M49.4385483,25 C49.4385483,38.8071194 38.413248,50 24.8128494,50 C19.7687838,50 15.0789209,48.4604278 11.174437,45.8189795 L39.3912881,4.84950919 C45.4845365,9.40054192 49.4385483,16.7314978 49.4385483,25 L49.4385483,25 Z" id="reflec" fill-opacity="0.08" fill="#000000" sketch:type="MSShapeGroup"></path>
        </g>
    </g>
</svg>