<?xml version="1.0" encoding="UTF-8" standalone="no"?>
<svg width="51px" height="50px" viewBox="0 0 51 50" version="1.1" xmlns="http://www.w3.org/2000/svg" xmlns:xlink="http://www.w3.org/1999/xlink" xmlns:sketch="http://www.bohemiancoding.com/sketch/ns">
    <!-- Generator: Sketch 3.0.4 (8054) - http://www.bohemiancoding.com/sketch -->
    <title>Twitter</title>
    <desc>Created with Sketch.</desc>
    <defs></defs>
    <g id="Welcome" stroke="none" stroke-width="1" fill="none" fill-rule="evenodd" sketch:type="MSPage">
        <g id="Desktop" sketch:type="MSArtboardGroup" transform="translate(-317.000000, -260.000000)">
            <g id="Icons" sketch:type="MSLayerGroup" transform="translate(197.000000, 260.000000)">
                <g id="Twitter" transform="translate(120.000000, 0.000000)" sketch:type="MSShapeGroup">
                    <path d="M0,25 C0,11.1928806 11.2090553,0 25.0361272,0 C38.8631991,0 50.0722543,11.1928806 50.0722543,25 C50.0722543,38.8071194 38.8631991,50 25.0361272,50 C11.2090553,50 0,38.8071194 0,25 L0,25 Z" id="Shape" fill="#FFFFFF"></path>
                    <path d="M24.4164729,19.906648 L24.4689338,20.7717044 L23.5945847,20.6657792 C20.4119538,20.2597322 17.6315234,18.8827037 15.2707807,16.5700019 L14.1166398,15.4224781 L13.8193611,16.2698802 C13.1898297,18.158881 13.5920303,20.153807 14.903554,21.4955271 C15.6030333,22.237004 15.4456505,22.3429293 14.2390487,21.901574 C13.8193611,21.7603402 13.4521344,21.654415 13.4171604,21.7073777 C13.2947516,21.8309572 13.7144392,23.4374904 14.0466918,24.0730421 C14.5013534,24.9557527 15.4281635,25.8208091 16.4424085,26.3327812 L17.2992707,26.7388282 L16.2850257,26.7564823 C15.3057546,26.7564823 15.2707807,26.7741366 15.3757026,27.144875 C15.7254423,28.2923988 17.1069139,29.5105395 18.6457684,30.0401658 L19.7299613,30.4109043 L18.7856643,30.9758391 C17.3867056,31.7879328 15.7429292,32.2469424 14.0991528,32.2822508 C13.3122385,32.299905 12.6652202,32.3705218 12.6652202,32.4234845 C12.6652202,32.6000266 14.7986321,33.5886625 16.0402079,33.9770552 C19.7649353,35.124579 24.1891421,34.630261 27.5116689,32.6706435 C29.8724117,31.2759607 32.2331544,28.5042494 33.3348343,25.8208091 C33.9293918,24.3908179 34.5239492,21.7779945 34.5239492,20.5245454 C34.5239492,19.7124517 34.5764102,19.6065264 35.5556812,18.6355447 C36.1327517,18.0706099 36.6748482,17.4527125 36.77977,17.2761703 C36.9546398,16.9407403 36.9371529,16.9407403 36.0453168,17.2408619 C34.5589232,17.7704883 34.3490793,17.6998715 35.0835327,16.9054319 C35.6256292,16.3404971 36.2726475,15.3165528 36.2726475,15.0164312 C36.2726475,14.9634686 36.0103428,15.0517397 35.7130641,15.2106275 C35.3982983,15.3871697 34.698819,15.6519828 34.1742095,15.8108707 L33.2299124,16.1109923 L32.3730503,15.5284033 C31.9009017,15.2106275 31.2363963,14.8575433 30.8866567,14.751618 C29.9948205,14.5044591 28.6308358,14.5397675 27.8264346,14.8222348 C25.6405617,15.6166744 24.25909,17.6645631 24.4164729,19.906648 L24.4164729,19.906648 Z" id="Path" fill="#AAAAAA"></path>
                    <path d="M50.0722543,25 C50.0722543,38.8071194 38.8631991,50 25.0361272,50 C19.9079937,50 15.1399665,48.4604278 11.1704079,45.8189795 L39.8575398,4.84950919 C46.0523423,9.40054192 50.0722543,16.7314977 50.0722543,25 L50.0722543,25 Z" id="reflec" fill-opacity="0.08" fill="#000000"></path>
                </g>
            </g>
        </g>
    </g>
</svg>